<svg width="418" height="269" xmlns="http://www.w3.org/2000/svg" xmlns:xlink="http://www.w3.org/1999/xlink" overflow="hidden"><defs><clipPath id="clip0"><rect x="130" y="63" width="418" height="269"/></clipPath></defs><g clip-path="url(#clip0)" transform="translate(-130 -63)"><rect x="130" y="64" width="417" height="267" fill="#7F7F7F" fill-opacity="0.101961"/><path d="M433 331 438.643 199 443.357 199 449 331Z" fill="#7F7F7F" fill-rule="evenodd"/><path d="M446.426 190.634 445.085 189.743C442.541 188.712 439.677 188.712 437.134 189.743L435.337 190.937 430.137 129.938C430.137 127.434 431.408 125.403 432.978 125.403ZM434.286 207.433 377.075 228.614C374.661 229.281 372.365 228.596 371.947 227.083L431.07 196.839 430.546 199.534C430.545 202.237 431.577 204.941 433.64 207.004ZM445.468 203.893C442.957 206.404 438.885 206.404 436.374 203.893 433.863 201.381 433.863 197.31 436.374 194.799 438.885 192.287 442.957 192.287 445.468 194.799 447.979 197.31 447.979 201.381 445.468 203.893ZM504.619 234.416 446.056 208.679 448.579 207.004C450.642 204.941 451.673 202.237 451.673 199.534L451.665 199.491 502.565 229.474C504.608 230.924 505.527 233.136 504.619 234.416ZM495.631 254.055C525.846 223.84 525.846 174.851 495.631 144.636 465.415 114.421 416.427 114.421 386.211 144.636 355.996 174.851 355.996 223.84 386.211 254.055 416.427 284.271 465.415 284.271 495.631 254.055ZM495.814 254.239C465.497 284.555 416.345 284.555 386.028 254.239 355.711 223.922 355.711 174.769 386.028 144.453 416.345 114.136 465.498 114.136 495.814 144.453 526.131 174.769 526.131 223.922 495.814 254.239Z" fill="#0B6F6F" fill-rule="evenodd"/><rect x="137" y="73" width="217" height="32" fill="#595959"/><text fill="#FFFFFF" font-family="Segoe UI,Segoe UI_MSFontService,sans-serif" font-weight="400" font-size="19" transform="translate(147.01 96)">Wind Turbine Name<tspan fill="#000000" fill-opacity="0.521569" font-weight="700" font-size="27" x="237.205" y="8">45.2 m/</tspan><tspan fill="#000000" fill-opacity="0.521569" font-weight="700" font-size="27" x="334.038" y="8">s</tspan><tspan fill="#000000" font-size="15" x="-3.84808" y="196">Angle: 32’</tspan><tspan fill="#000000" font-size="15" x="-3.84808" y="219">Power: 2.1 Mw</tspan></text><path d="M144 135.5C144 126.387 151.387 119 160.5 119 169.613 119 177 126.387 177 135.5 177 144.613 169.613 152 160.5 152 151.387 152 144 144.613 144 135.5Z" stroke="#70AD47" stroke-width="2" stroke-miterlimit="8" fill="none" fill-rule="evenodd"/><text fill="#548235" font-family="Calibri,Calibri_MSFontService,sans-serif" font-weight="400" font-size="21" transform="translate(149.963 143)">23</text><path d="M199 135.5C199 126.387 206.387 119 215.5 119 224.613 119 232 126.387 232 135.5 232 144.613 224.613 152 215.5 152 206.387 152 199 144.613 199 135.5Z" stroke="#FFC000" stroke-width="2" stroke-miterlimit="8" fill="none" fill-rule="evenodd"/><text fill="#FFC000" font-family="Calibri,Calibri_MSFontService,sans-serif" font-weight="400" font-size="21" transform="translate(204.417 143)">24</text><path d="M253 135.5C253 126.387 260.387 119 269.5 119 278.613 119 286 126.387 286 135.5 286 144.613 278.613 152 269.5 152 260.387 152 253 144.613 253 135.5Z" stroke="#C00000" stroke-width="2" stroke-miterlimit="8" fill="none" fill-rule="evenodd"/><text fill="#C00000" font-family="Calibri,Calibri_MSFontService,sans-serif" font-weight="400" font-size="21" transform="translate(258.871 143)">25</text><path d="M308 135.5C308 126.387 315.387 119 324.5 119 333.613 119 341 126.387 341 135.5 341 144.613 333.613 152 324.5 152 315.387 152 308 144.613 308 135.5Z" stroke="#0070C0" stroke-width="2" stroke-miterlimit="8" fill="none" fill-rule="evenodd"/><text fill="#0070C0" font-family="Calibri,Calibri_MSFontService,sans-serif" font-weight="400" font-size="21" transform="translate(313.325 143)">26</text></g></svg>