<svg width="656" height="481" xmlns="http://www.w3.org/2000/svg" xmlns:xlink="http://www.w3.org/1999/xlink" overflow="hidden"><defs><clipPath id="clip0"><rect x="26" y="20" width="656" height="481"/></clipPath><linearGradient x1="86" y1="202" x2="295" y2="202" gradientUnits="userSpaceOnUse" spreadMethod="reflect" id="fill1"><stop offset="0" stop-color="#7030A0"/><stop offset="0.54" stop-color="#7030A0"/><stop offset="0.55" stop-color="#D9D9D9"/><stop offset="1" stop-color="#D9D9D9"/></linearGradient><linearGradient x1="491" y1="307" x2="491" y2="149" gradientUnits="userSpaceOnUse" spreadMethod="reflect" id="fill2"><stop offset="0" stop-color="#00B0F0"/><stop offset="0.75" stop-color="#00B0F0"/><stop offset="0.77" stop-color="#D9D9D9"/><stop offset="1" stop-color="#D9D9D9"/></linearGradient><linearGradient x1="491" y1="307" x2="491" y2="149" gradientUnits="userSpaceOnUse" spreadMethod="reflect" id="fill3"><stop offset="0" stop-color="#66D0F6"/><stop offset="0.75" stop-color="#66D0F6"/><stop offset="0.77" stop-color="#E8E8E8"/><stop offset="1" stop-color="#E8E8E8"/></linearGradient></defs><g clip-path="url(#clip0)" transform="translate(-26 -20)"><rect x="28" y="21" width="654" height="479" fill="#FFFFFF"/><rect x="28" y="79" width="654" height="5" fill="#7F7F7F" fill-opacity="0.101961"/><path d="M465 49.5C465 38.7304 473.73 30 484.5 30 495.27 30 504 38.7304 504 49.5 504 60.2696 495.27 69 484.5 69 473.73 69 465 60.2696 465 49.5Z" stroke="#70AD47" stroke-width="2" stroke-miterlimit="8" fill="#FFFFFF" fill-rule="evenodd"/><text fill="#548235" font-family="Calibri,Calibri_MSFontService,sans-serif" font-weight="400" font-size="24" transform="translate(472.322 57)">23</text><path d="M190.5 150C248.214 150 295 196.562 295 254L265.54 254C265.54 212.755 231.944 179.319 190.5 179.319 149.056 179.319 115.46 212.755 115.46 254L86 254C86 196.562 132.786 150 190.5 150Z" fill="url(#fill1)" fill-rule="evenodd"/><text fill="#3B3838" font-family="Segoe UI,Segoe UI_MSFontService,sans-serif" font-weight="400" font-size="32" transform="translate(45.7841 61)">SANİBEY </text><path d="M520 49.5C520 38.7304 528.507 30 539 30 549.493 30 558 38.7304 558 49.5 558 60.2696 549.493 69 539 69 528.507 69 520 60.2696 520 49.5Z" stroke="#FFC000" stroke-width="2" stroke-miterlimit="8" fill="#FFFFFF" fill-rule="evenodd"/><text fill="#FFC000" font-family="Calibri,Calibri_MSFontService,sans-serif" font-weight="400" font-size="24" transform="translate(526.775 57)">24</text><path d="M574 49.5C574 38.7304 582.73 30 593.5 30 604.27 30 613 38.7304 613 49.5 613 60.2696 604.27 69 593.5 69 582.73 69 574 60.2696 574 49.5Z" stroke="#C00000" stroke-width="2" stroke-miterlimit="8" fill="#FFFFFF" fill-rule="evenodd"/><text fill="#C00000" font-family="Calibri,Calibri_MSFontService,sans-serif" font-weight="400" font-size="24" transform="translate(581.229 57)">25</text><path d="M629 49.5C629 38.7304 637.507 30 648 30 658.493 30 667 38.7304 667 49.5 667 60.2696 658.493 69 648 69 637.507 69 629 60.2696 629 49.5Z" stroke="#0070C0" stroke-width="2" stroke-miterlimit="8" fill="#FFFFFF" fill-rule="evenodd"/><text fill="#0070C0" font-family="Calibri,Calibri_MSFontService,sans-serif" font-weight="400" font-size="24" transform="translate(635.683 57)">26</text><path d="M415 154.402C415 157.386 449.026 159.804 491 159.804 532.974 159.804 567 157.386 567 154.402L567 301.598C567 304.581 532.974 307 491 307 449.026 307 415 304.581 415 301.598Z" fill="url(#fill2)" fill-rule="evenodd"/><path d="M415 154.402C415 151.419 449.026 149 491 149 532.974 149 567 151.419 567 154.402 567 157.386 532.974 159.804 491 159.804 449.026 159.804 415 157.386 415 154.402Z" fill="url(#fill3)" fill-rule="evenodd"/><text font-family="Segoe UI,Segoe UI_MSFontService,sans-serif" font-weight="400" font-size="19" transform="translate(45.2005 117)">Aktif<tspan x="43.02" y="0">Güç</tspan><tspan x="80.1867" y="0">(Mw)</tspan><tspan x="329.704" y="0">Göl</tspan><tspan x="363.204" y="0">Kotu</tspan><tspan x="406.791" y="0">(m) </tspan></text><path d="M567.5 154.5 593.638 154.5" stroke="#000000" stroke-width="0.666667" stroke-miterlimit="8" fill="none" fill-rule="evenodd"/><text font-family="Segoe UI,Segoe UI_MSFontService,sans-serif" font-weight="400" transform="translate(599.235 157)">Max: 235</text><path d="M567.5 301.5 593.185 301.5" stroke="#000000" stroke-width="0.666667" stroke-miterlimit="8" fill="none" fill-rule="evenodd"/><text font-family="Segoe UI,Segoe UI_MSFontService,sans-serif" font-weight="400" transform="translate(599.235 305)">Min: 210<tspan font-weight="700" font-size="19" x="-11.9505" y="-77">235 m</tspan><tspan font-weight="700" font-size="27" x="-135.941" y="-69">%82</tspan><tspan font-weight="700" font-size="19" x="-444.026" y="-81">234 Mw</tspan><tspan font-size="19" x="-334.26" y="-28">300</tspan><tspan font-size="19" x="-503.432" y="-28">0</tspan><tspan font-weight="700" font-size="16" x="-425.095" y="-38">%48</tspan></text><rect x="83" y="395" width="218" height="36" fill="#D9D9D9"/><text font-family="Segoe UI,Segoe UI_MSFontService,sans-serif" font-weight="400" font-size="19" transform="translate(45.2006 364)">U1 Aktif<tspan x="71.02" y="0">Güç</tspan><tspan x="108.187" y="0">(Mw)</tspan><tspan x="219.775" y="93">315</tspan><tspan x="50.6032" y="96">0</tspan><tspan font-weight="700" font-size="16" x="128.94" y="93">%46</tspan></text><rect x="83" y="395" width="177" height="36" fill="#00B050"/><text fill="#FFFFFF" font-family="Segoe UI,Segoe UI_MSFontService,sans-serif" font-weight="700" font-size="21" transform="translate(92.8824 421)">116</text><rect x="388" y="395" width="218" height="36" fill="#D9D9D9"/><text font-family="Segoe UI,Segoe UI_MSFontService,sans-serif" font-weight="400" font-size="19" transform="translate(374.905 364)">U2 Güç<tspan x="65.1667" y="0">(Mw)</tspan><tspan x="194.346" y="93">316</tspan><tspan x="25.1736" y="96">0</tspan><tspan font-weight="700" font-size="16" x="103.51" y="93">%47</tspan></text><rect x="388" y="395" width="177" height="36" fill="#00B050"/><text fill="#FFFFFF" font-family="Segoe UI,Segoe UI_MSFontService,sans-serif" font-weight="700" font-size="21" transform="translate(397.157 421)">117</text><rect x="28" y="329" width="654" height="5" fill="#7F7F7F" fill-opacity="0.101961"/><rect x="354" y="84" width="4" height="416" fill="#7F7F7F" fill-opacity="0.101961"/></g></svg>